<?xml version="1.0" encoding="UTF-8"?>
<svg id="Layer_2" data-name="Layer 2" xmlns="http://www.w3.org/2000/svg" viewBox="0 0 702.2 197">
  <defs>
    <style>
      .cls-1 {
        fill: #093b40;
        stroke-width: 0px;
      }
    </style>
  </defs>
  <g id="Layer_1-2" data-name="Layer 1">
    <g>
      <g>
        <circle class="cls-1" cx="29.93" cy="112.27" r="29.93"/>
        <path class="cls-1" d="M166.42,67.1l-49.7,129.9-5.92-2.26c4-12.95-2.7-27.01-15.55-31.93-12.84-4.91-27.22,1.1-32.88,13.41l-7.43-2.85,30.41-79.96,67.03-27.29H0v-6.33c13.53-.88,24.26-12.17,24.26-25.92S13.53,8.83,0,7.95V0h99.01c37.07,0,67.24,30.08,67.41,67.1Z"/>
      </g>
      <g>
        <g>
          <path class="cls-1" d="M217.42,104.37c-6.14-3.85-9.91-9.46-11.3-16.83l16.91-4.81c1.07,4.44,3.14,7.74,6.21,9.9,3.07,2.16,6.83,3.25,11.26,3.25,3.63,0,6.72-.72,9.26-2.16s3.81-3.82,3.81-7.13c0-2.24-.71-4.1-2.12-5.57-1.42-1.47-3.23-2.63-5.45-3.49-2.22-.85-5.36-1.87-9.42-3.05-3.05-.8-5.77-1.63-8.18-2.49-4.06-1.34-7.52-2.85-10.38-4.53-2.86-1.68-5.2-3.97-7.01-6.85-1.82-2.89-2.73-6.52-2.73-10.9,0-5.29,1.34-9.73,4.01-13.31,2.67-3.58,6.32-6.24,10.94-7.98,4.62-1.74,9.9-2.61,15.83-2.61,8.23,0,15.16,1.75,20.8,5.25,5.64,3.5,9.15,8.89,10.54,16.15l-15.71,3.61c-1.07-3.95-2.97-6.84-5.69-8.66-2.72-1.82-6.01-2.73-9.86-2.73-3.58,0-6.57.72-8.98,2.16-2.4,1.44-3.61,3.58-3.61,6.41,0,2.03.71,3.7,2.13,5.01,1.41,1.31,3.19,2.34,5.33,3.09,2.14.75,5.13,1.6,8.98,2.56l3.37.88c5.24,1.39,9.71,2.98,13.43,4.77,3.71,1.79,6.81,4.38,9.3,7.78,2.48,3.39,3.73,7.76,3.73,13.11,0,5.77-1.46,10.53-4.37,14.27-2.91,3.74-6.8,6.45-11.66,8.14-4.86,1.68-10.29,2.52-16.27,2.52-9.25,0-16.94-1.92-23.09-5.77Z"/>
          <path class="cls-1" d="M343.31,30.87c5.88,3.42,10.54,8.34,13.99,14.75,3.45,6.41,5.17,13.9,5.17,22.45s-1.72,16.03-5.17,22.44c-3.45,6.41-8.11,11.33-13.99,14.75-5.88,3.42-12.37,5.13-19.48,5.13-5.67,0-10.84-1.16-15.51-3.49-4.68-2.32-8.22-5.57-10.62-9.74v36.39h-19.96V27.34h9.25l10.3,12.34c2.35-4.38,5.89-7.8,10.62-10.26,4.73-2.46,10.03-3.69,15.91-3.69,7.11,0,13.6,1.71,19.48,5.13ZM331.01,90.55c3.5-2.06,6.28-5.02,8.34-8.9,2.06-3.87,3.09-8.4,3.09-13.59s-1.03-9.7-3.09-13.55c-2.06-3.85-4.84-6.8-8.34-8.86-3.5-2.06-7.39-3.09-11.66-3.09s-8.27,1.08-11.82,3.25c-3.55,2.16-6.35,5.18-8.38,9.06-2.03,3.88-3.05,8.27-3.05,13.19s1.02,9.39,3.05,13.27c2.03,3.87,4.82,6.89,8.38,9.06,3.55,2.16,7.5,3.25,11.82,3.25s8.16-1.03,11.66-3.09Z"/>
          <path class="cls-1" d="M620.32.41v108.13h-11.58l-7.98-11.94c-2.3,4.44-5.81,7.84-10.54,10.22s-10.09,3.57-16.07,3.57c-7.11,0-13.6-1.72-19.48-5.17-5.88-3.45-10.54-8.38-13.99-14.79-3.45-6.41-5.17-13.87-5.17-22.36s1.72-15.95,5.17-22.36c3.45-6.41,8.12-11.34,14.03-14.79,5.9-3.45,12.39-5.17,19.44-5.17,5.82,0,11.05,1.11,15.67,3.33,4.62,2.22,8.14,5.44,10.54,9.66V.41h19.96ZM590.5,90.51c3.53-2.08,6.3-5.05,8.34-8.9,2.03-3.85,3.05-8.36,3.05-13.55s-1.02-9.7-3.05-13.55c-2.03-3.85-4.81-6.81-8.34-8.9-3.53-2.08-7.46-3.13-11.78-3.13s-8.26,1.04-11.78,3.13c-3.53,2.08-6.32,5.06-8.38,8.94-2.06,3.88-3.09,8.38-3.09,13.51s1.03,9.63,3.09,13.51c2.06,3.88,4.85,6.85,8.38,8.94,3.53,2.08,7.46,3.13,11.78,3.13s8.26-1.04,11.78-3.13Z"/>
          <path class="cls-1" d="M531.29,108.54h-19.49v-44.97c0-10.33-8.4-18.73-18.73-18.73s-18.73,8.4-18.73,18.73v44.97h-19.49v-44.97c0-21.07,17.14-38.22,38.22-38.22s38.22,17.14,38.22,38.22v44.97Z"/>
          <path class="cls-1" d="M663.99,109.29c-21.07,0-38.22-17.14-38.22-38.22V26.11h19.49v44.97c0,10.33,8.4,18.73,18.73,18.73s18.73-8.4,18.73-18.73V26.11h19.49v44.97c0,21.07-17.14,38.22-38.22,38.22Z"/>
          <path class="cls-1" d="M678.88,157.25h-51.54v-19.49h51.54c1.75,0,3.18-1.43,3.18-3.18s-1.43-3.18-3.18-3.18h-19.37v-19.49h19.37c12.5,0,22.67,10.17,22.67,22.67s-10.17,22.67-22.67,22.67Z"/>
          <path class="cls-1" d="M450.42,68.36c0-2.82-.28-5.58-.81-8.25-.03-.12-.06-.24-.09-.37-3.97-19.03-20.89-33.36-41.08-33.36-23.15,0-41.98,18.83-41.98,41.98s18.83,41.98,41.98,41.98c17.72,0,32.92-11.03,39.06-26.61h-20.66c-4.39,5.26-11.02,8.62-18.4,8.62-9.9,0-18.43-6.03-22.08-14.62h63c.7-3.01,1.06-6.15,1.06-9.37ZM386.05,59.74c3.46-8.98,12.2-15.37,22.38-15.37s18.92,6.39,22.38,15.37h-44.77Z"/>
        </g>
        <g>
          <path class="cls-1" d="M358.78,155.27c-1.01-.39-1.85-.95-2.5-1.69-.65-.74-1.09-1.61-1.3-2.61l2.38-.56c.14.71.44,1.32.89,1.84s1.03.91,1.72,1.18c.69.27,1.46.41,2.31.41.72,0,1.39-.1,2-.31.61-.21,1.1-.55,1.47-1.01s.56-1.06.56-1.79-.22-1.33-.67-1.77c-.45-.45-1-.8-1.64-1.04s-1.55-.52-2.72-.84c-1.23-.33-2.24-.67-3.02-1-.78-.34-1.43-.83-1.95-1.48-.52-.65-.78-1.5-.78-2.56s.27-2.03.82-2.8c.55-.77,1.29-1.34,2.21-1.73.93-.38,1.95-.58,3.08-.58s2.15.16,3.09.48,1.74.82,2.39,1.49c.65.67,1.08,1.51,1.3,2.5l-2.26.58c-.24-1-.75-1.76-1.55-2.27-.8-.51-1.76-.76-2.87-.76-.67,0-1.3.1-1.88.31-.58.21-1.05.54-1.41,1-.36.46-.54,1.04-.54,1.75,0,.63.19,1.14.58,1.54.39.4.88.71,1.48.94.6.23,1.4.47,2.42.73,1.35.36,2.45.71,3.29,1.05.84.34,1.56.86,2.15,1.56.6.7.9,1.62.9,2.76s-.29,2.17-.88,2.96c-.59.79-1.38,1.37-2.36,1.74-.98.38-2.07.56-3.27.56-1.27,0-2.42-.2-3.43-.58Z"/>
          <path class="cls-1" d="M380.94,143.32c.91.55,1.64,1.33,2.17,2.34.54,1.01.81,2.19.81,3.52s-.27,2.51-.81,3.53c-.54,1.02-1.26,1.8-2.17,2.35-.91.55-1.92.82-3.02.82-.99,0-1.9-.24-2.7-.73-.81-.49-1.42-1.15-1.84-1.98v8.92h-2.25v-19.35h2.19l.05,2.49c.41-.84,1.02-1.5,1.83-2s1.72-.74,2.72-.74c1.1,0,2.11.28,3.02.82ZM379.58,153.34c.64-.39,1.14-.94,1.52-1.66s.56-1.55.56-2.5-.19-1.77-.56-2.49c-.38-.72-.88-1.27-1.52-1.66-.64-.39-1.34-.58-2.11-.58s-1.5.21-2.15.62c-.65.41-1.16.98-1.54,1.7-.38.72-.56,1.52-.56,2.4s.19,1.7.56,2.42c.38.72.89,1.29,1.54,1.7.65.41,1.37.62,2.15.62s1.47-.2,2.11-.58Z"/>
          <path class="cls-1" d="M397.36,149.53h-10.05c.03.96.23,1.77.6,2.44.38.67.87,1.17,1.5,1.5.62.33,1.31.5,2.06.5s1.5-.21,2.13-.62,1.13-.98,1.48-1.7l2.04.43c-.47,1.17-1.21,2.09-2.21,2.76-1,.67-2.14,1.01-3.42,1.01s-2.36-.27-3.33-.8-1.72-1.3-2.26-2.31c-.54-1.01-.81-2.2-.81-3.58s.27-2.56.82-3.57c.55-1.01,1.3-1.78,2.26-2.31.96-.53,2.05-.8,3.26-.8s2.2.24,3.1.72c.9.48,1.6,1.2,2.11,2.17s.76,2.15.76,3.54l-.04.62ZM388.78,145.13c-.72.6-1.18,1.47-1.38,2.61h7.72c-.1-1.14-.49-2.01-1.15-2.61-.66-.6-1.5-.9-2.53-.9s-1.94.3-2.66.9Z"/>
          <path class="cls-1" d="M407.94,143.01c.67.34,1.19.85,1.56,1.52.37.67.56,1.47.56,2.42v8.67h-2.28v-8.16c0-1.04-.26-1.81-.79-2.3-.52-.5-1.2-.75-2.02-.75-.6,0-1.14.13-1.62.38-.48.25-.86.64-1.15,1.17-.28.53-.43,1.18-.43,1.96v7.7h-2.25v-12.87h2.25v1.65c.41-.61.94-1.08,1.6-1.41.65-.33,1.4-.49,2.23-.49.88,0,1.66.17,2.33.52Z"/>
          <path class="cls-1" d="M424.75,135.5v20.11h-2.19l-.04-2.45c-.4.88-1.01,1.56-1.81,2.02-.81.47-1.73.7-2.77.7-1.1,0-2.11-.28-3.02-.83s-1.64-1.34-2.17-2.36-.8-2.19-.8-3.52.27-2.48.8-3.5c.54-1.02,1.26-1.8,2.18-2.36s1.92-.83,3.01-.83,1.96.23,2.76.68c.8.45,1.4,1.11,1.8,1.98v-9.65h2.25ZM420.58,153.34c.64-.39,1.15-.94,1.51-1.66.37-.72.55-1.55.55-2.49s-.19-1.77-.56-2.49c-.37-.72-.88-1.27-1.51-1.66-.64-.39-1.35-.58-2.13-.58s-1.49.2-2.13.59-1.16.95-1.53,1.67c-.38.72-.56,1.55-.56,2.48s.19,1.76.56,2.48c.38.72.89,1.28,1.53,1.67s1.36.59,2.13.59,1.5-.2,2.14-.58Z"/>
          <path class="cls-1" d="M451.33,142.74l-4.45,12.88h-2.04l-3.48-9.92-3.51,9.92h-2.06l-4.36-12.88h2.36l3.18,9.85,3.5-9.85h1.74l3.5,9.88,3.25-9.88h2.38Z"/>
          <path class="cls-1" d="M463.56,149.53h-10.05c.03.96.23,1.77.6,2.44.38.67.87,1.17,1.5,1.5.62.33,1.31.5,2.06.5s1.5-.21,2.13-.62,1.13-.98,1.48-1.7l2.04.43c-.47,1.17-1.21,2.09-2.21,2.76-1,.67-2.14,1.01-3.42,1.01s-2.36-.27-3.33-.8-1.72-1.3-2.26-2.31c-.54-1.01-.81-2.2-.81-3.58s.27-2.56.82-3.57c.55-1.01,1.3-1.78,2.26-2.31.96-.53,2.05-.8,3.26-.8s2.2.24,3.1.72c.9.48,1.6,1.2,2.11,2.17s.76,2.15.76,3.54l-.04.62ZM454.97,145.13c-.72.6-1.18,1.47-1.38,2.61h7.72c-.1-1.14-.49-2.01-1.15-2.61-.66-.6-1.5-.9-2.53-.9s-1.94.3-2.66.9Z"/>
          <path class="cls-1" d="M465.72,135.5h2.28v20.11h-2.28v-20.11Z"/>
          <path class="cls-1" d="M471.13,135.5h2.28v20.11h-2.28v-20.11Z"/>
          <path class="cls-1" d="M499.97,142.74l-4.45,12.88h-2.04l-3.48-9.92-3.51,9.92h-2.06l-4.36-12.88h2.36l3.18,9.85,3.5-9.85h1.74l3.5,9.88,3.25-9.88h2.38Z"/>
          <path class="cls-1" d="M501.49,139.26c-.3-.3-.45-.66-.45-1.08s.15-.78.45-1.07c.3-.3.66-.45,1.08-.45.27,0,.52.07.75.2.23.14.42.32.56.56.14.23.21.49.21.76s-.07.52-.21.76c-.14.23-.33.42-.56.56-.23.14-.48.21-.75.21-.42,0-.78-.15-1.08-.45ZM501.42,142.74h2.26v12.87h-2.26v-12.87Z"/>
          <path class="cls-1" d="M508.56,154.69c-.61-.62-.92-1.47-.92-2.57v-7.57h-2.64v-1.81c.89,0,1.54-.09,1.95-.27.41-.18.69-.53.85-1.04.16-.51.24-1.33.24-2.46h1.87v3.77h2.96v1.81h-2.96v7.33c0,.61.16,1.08.49,1.42.33.34.76.5,1.29.5h1.18v1.81h-1.79c-1.06,0-1.9-.31-2.51-.92Z"/>
          <path class="cls-1" d="M523.13,143.01c.66.35,1.17.87,1.54,1.56.37.69.56,1.53.56,2.53v8.51h-2.28v-8.08c0-1.07-.26-1.86-.79-2.37s-1.2-.76-2.03-.76c-.59,0-1.13.12-1.6.37-.48.25-.86.64-1.15,1.17-.29.53-.43,1.18-.43,1.97v7.7h-2.25v-20.11h2.25v8.94c.41-.62.95-1.1,1.62-1.44.67-.34,1.43-.51,2.27-.51s1.63.17,2.28.52Z"/>
          <path class="cls-1" d="M536.25,155.27c-1.01-.39-1.85-.95-2.5-1.69-.65-.74-1.09-1.61-1.3-2.61l2.38-.56c.14.71.44,1.32.89,1.84s1.03.91,1.72,1.18c.69.27,1.46.41,2.31.41.72,0,1.39-.1,2-.31.61-.21,1.1-.55,1.47-1.01s.56-1.06.56-1.79-.22-1.33-.67-1.77c-.45-.45-1-.8-1.64-1.04s-1.55-.52-2.72-.84c-1.23-.33-2.24-.67-3.02-1-.78-.34-1.43-.83-1.95-1.48-.52-.65-.78-1.5-.78-2.56s.27-2.03.82-2.8c.55-.77,1.29-1.34,2.21-1.73.93-.38,1.95-.58,3.08-.58s2.15.16,3.09.48,1.74.82,2.39,1.49c.65.67,1.08,1.51,1.3,2.5l-2.26.58c-.24-1-.75-1.76-1.55-2.27-.8-.51-1.76-.76-2.87-.76-.67,0-1.3.1-1.88.31-.58.21-1.05.54-1.41,1-.36.46-.54,1.04-.54,1.75,0,.63.19,1.14.58,1.54.39.4.88.71,1.48.94.6.23,1.4.47,2.42.73,1.35.36,2.45.71,3.29,1.05.84.34,1.56.86,2.15,1.56.6.7.9,1.62.9,2.76s-.29,2.17-.88,2.96c-.59.79-1.38,1.37-2.36,1.74-.98.38-2.07.56-3.27.56-1.27,0-2.42-.2-3.43-.58Z"/>
          <path class="cls-1" d="M558.41,143.32c.91.55,1.64,1.33,2.17,2.34.54,1.01.81,2.19.81,3.52s-.27,2.51-.81,3.53c-.54,1.02-1.26,1.8-2.17,2.35-.91.55-1.92.82-3.02.82-.99,0-1.9-.24-2.7-.73-.81-.49-1.42-1.15-1.84-1.98v8.92h-2.25v-19.35h2.19l.05,2.49c.41-.84,1.02-1.5,1.83-2s1.72-.74,2.72-.74c1.1,0,2.11.28,3.02.82ZM557.04,153.34c.64-.39,1.14-.94,1.52-1.66s.56-1.55.56-2.5-.19-1.77-.56-2.49c-.38-.72-.88-1.27-1.52-1.66-.64-.39-1.34-.58-2.11-.58s-1.5.21-2.15.62c-.65.41-1.16.98-1.54,1.7-.38.72-.56,1.52-.56,2.4s.19,1.7.56,2.42c.38.72.89,1.29,1.54,1.7.65.41,1.37.62,2.15.62s1.47-.2,2.11-.58Z"/>
          <path class="cls-1" d="M574.83,149.53h-10.05c.03.96.23,1.77.6,2.44.38.67.87,1.17,1.5,1.5.62.33,1.31.5,2.06.5s1.5-.21,2.13-.62,1.13-.98,1.48-1.7l2.04.43c-.47,1.17-1.21,2.09-2.21,2.76-1,.67-2.14,1.01-3.42,1.01s-2.36-.27-3.33-.8-1.72-1.3-2.26-2.31c-.54-1.01-.81-2.2-.81-3.58s.27-2.56.82-3.57c.55-1.01,1.3-1.78,2.26-2.31.96-.53,2.05-.8,3.26-.8s2.2.24,3.1.72c.9.48,1.6,1.2,2.11,2.17s.76,2.15.76,3.54l-.04.62ZM566.25,145.13c-.72.6-1.18,1.47-1.38,2.61h7.72c-.1-1.14-.49-2.01-1.15-2.61-.66-.6-1.5-.9-2.53-.9s-1.94.3-2.66.9Z"/>
          <path class="cls-1" d="M585.4,143.01c.67.34,1.19.85,1.56,1.52.37.67.56,1.47.56,2.42v8.67h-2.28v-8.16c0-1.04-.26-1.81-.79-2.3-.52-.5-1.2-.75-2.02-.75-.6,0-1.14.13-1.62.38-.48.25-.86.64-1.15,1.17-.28.53-.43,1.18-.43,1.96v7.7h-2.25v-12.87h2.25v1.65c.41-.61.94-1.08,1.6-1.41.65-.33,1.4-.49,2.23-.49.88,0,1.66.17,2.33.52Z"/>
          <path class="cls-1" d="M602.22,135.5v20.11h-2.19l-.04-2.45c-.4.88-1.01,1.56-1.81,2.02-.81.47-1.73.7-2.77.7-1.1,0-2.11-.28-3.02-.83s-1.64-1.34-2.17-2.36-.8-2.19-.8-3.52.27-2.48.8-3.5c.54-1.02,1.26-1.8,2.18-2.36s1.92-.83,3.01-.83,1.96.23,2.76.68c.8.45,1.4,1.11,1.8,1.98v-9.65h2.25ZM598.05,153.34c.64-.39,1.15-.94,1.51-1.66.37-.72.55-1.55.55-2.49s-.19-1.77-.56-2.49c-.37-.72-.88-1.27-1.51-1.66-.64-.39-1.35-.58-2.13-.58s-1.49.2-2.13.59-1.16.95-1.53,1.67c-.38.72-.56,1.55-.56,2.48s.19,1.76.56,2.48c.38.72.89,1.28,1.53,1.67s1.36.59,2.13.59,1.5-.2,2.14-.58Z"/>
          <path class="cls-1" d="M615.75,142.74v13.47c0,1.88-.47,3.26-1.4,4.16s-2.25,1.35-3.94,1.35c-1.52,0-2.73-.33-3.63-1-.9-.67-1.46-1.62-1.68-2.85l1.98-.76c.17,1.04.54,1.76,1.1,2.17.56.41,1.3.61,2.23.61s1.7-.27,2.25-.81c.55-.54.82-1.37.82-2.49v-2.7c-.41.6-.94,1.07-1.6,1.39-.65.33-1.39.49-2.21.49-.89,0-1.67-.17-2.34-.52-.67-.34-1.19-.85-1.56-1.52-.37-.67-.56-1.47-.56-2.42v-8.59h2.28v8.09c0,1.03.26,1.79.79,2.3.53.5,1.2.75,2.02.75.93,0,1.7-.3,2.28-.89.59-.59.88-1.47.88-2.63v-7.62h2.26Z"/>
        </g>
      </g>
    </g>
  </g>
</svg>