<?xml version="1.0" encoding="UTF-8"?>
<svg id="Layer_2" data-name="Layer 2" xmlns="http://www.w3.org/2000/svg" viewBox="0 0 446.01 401">
  <defs>
    <style>
      .cls-1 {
        fill: #093b40;
      }

      .cls-1, .cls-2, .cls-3, .cls-4 {
        stroke-width: 0px;
      }

      .cls-2 {
        fill: #1a1a1a;
      }

      .cls-3 {
        fill: #98e23f;
      }

      .cls-4 {
        fill: #000;
      }
    </style>
  </defs>
  <g id="Layer_1-2" data-name="Layer 1">
    <g>
      <g>
        <circle class="cls-3" cx="163.43" cy="125.54" r="33.46"/>
        <path class="cls-1" d="M316.05,75.03l-55.57,145.26-6.62-2.53c4.48-14.48-3.02-30.21-17.39-35.7-14.36-5.49-30.44,1.23-36.77,15l-8.3-3.18,34.01-89.42,74.95-30.52h-170.4v-7.08c15.13-.99,27.13-13.61,27.13-28.98s-12-28-27.13-28.99V0h110.72c41.45,0,75.18,33.63,75.38,75.03Z"/>
      </g>
      <g>
        <g>
          <path class="cls-2" d="M10.16,347.86c-5.52-3.46-8.91-8.5-10.16-15.13l15.21-4.32c.96,3.99,2.82,6.95,5.58,8.9,2.76,1.95,6.14,2.92,10.13,2.92,3.27,0,6.04-.65,8.32-1.95s3.42-3.43,3.42-6.41c0-2.02-.64-3.69-1.91-5.01-1.27-1.32-2.91-2.37-4.9-3.14-1.99-.77-4.82-1.68-8.47-2.74-2.74-.72-5.19-1.47-7.35-2.23-3.65-1.2-6.76-2.56-9.33-4.07-2.57-1.51-4.67-3.57-6.31-6.16-1.63-2.59-2.45-5.86-2.45-9.8,0-4.76,1.2-8.74,3.6-11.96,2.4-3.22,5.68-5.61,9.84-7.17,4.16-1.56,8.9-2.34,14.23-2.34,7.4,0,13.63,1.57,18.7,4.72,5.07,3.15,8.23,7.99,9.48,14.52l-14.12,3.24c-.96-3.56-2.67-6.15-5.12-7.78-2.45-1.63-5.4-2.45-8.86-2.45-3.22,0-5.91.65-8.07,1.95-2.16,1.3-3.24,3.22-3.24,5.76,0,1.83.64,3.33,1.91,4.5,1.27,1.18,2.87,2.1,4.79,2.77,1.92.67,4.61,1.44,8.07,2.31l3.03.79c4.71,1.25,8.73,2.68,12.07,4.29,3.34,1.61,6.13,3.94,8.36,6.99,2.23,3.05,3.35,6.98,3.35,11.78,0,5.19-1.31,9.47-3.93,12.83-2.62,3.36-6.11,5.8-10.49,7.31-4.37,1.51-9.25,2.27-14.63,2.27-8.31,0-15.23-1.73-20.76-5.19Z"/>
          <path class="cls-2" d="M123.34,281.78c5.28,3.07,9.48,7.5,12.57,13.26,3.1,5.77,4.65,12.49,4.65,20.18s-1.55,14.41-4.65,20.18c-3.1,5.77-7.29,10.19-12.57,13.26-5.29,3.07-11.12,4.61-17.51,4.61-5.09,0-9.74-1.04-13.95-3.13-4.2-2.09-7.39-5.01-9.55-8.76v32.72h-17.95v-95.49h8.32l9.26,11.1c2.11-3.94,5.3-7.01,9.55-9.22,4.25-2.21,9.02-3.32,14.31-3.32,6.39,0,12.23,1.54,17.51,4.61ZM112.28,335.43c3.15-1.85,5.64-4.52,7.5-8,1.85-3.48,2.77-7.56,2.77-12.22s-.93-8.72-2.77-12.18c-1.85-3.46-4.35-6.11-7.5-7.96-3.15-1.85-6.64-2.77-10.49-2.77s-7.44.97-10.63,2.92c-3.2,1.95-5.7,4.66-7.53,8.14-1.83,3.48-2.74,7.44-2.74,11.86s.91,8.44,2.74,11.93c1.83,3.48,4.33,6.2,7.53,8.14,3.19,1.95,6.74,2.92,10.63,2.92s7.34-.92,10.49-2.77Z"/>
          <path class="cls-2" d="M372.39,254.39v97.22h-10.41l-7.17-10.74c-2.07,3.99-5.23,7.05-9.48,9.19-4.25,2.14-9.07,3.21-14.45,3.21-6.39,0-12.23-1.55-17.51-4.65-5.29-3.1-9.48-7.53-12.57-13.3-3.1-5.77-4.65-12.47-4.65-20.11s1.55-14.34,4.65-20.11c3.1-5.77,7.3-10.2,12.61-13.3,5.31-3.1,11.13-4.65,17.48-4.65,5.24,0,9.93,1,14.09,2.99,4.16,1.99,7.32,4.89,9.48,8.68v-34.45h17.94ZM345.58,335.4c3.17-1.87,5.67-4.54,7.5-8,1.82-3.46,2.74-7.52,2.74-12.18s-.91-8.72-2.74-12.18c-1.83-3.46-4.32-6.13-7.5-8-3.17-1.87-6.7-2.81-10.59-2.81s-7.42.94-10.59,2.81c-3.17,1.87-5.68,4.55-7.53,8.04-1.85,3.48-2.77,7.53-2.77,12.14s.93,8.66,2.77,12.14c1.85,3.48,4.36,6.16,7.53,8.04,3.17,1.87,6.7,2.81,10.59,2.81s7.42-.94,10.59-2.81Z"/>
          <path class="cls-2" d="M292.34,351.61h-17.52v-40.43c0-9.28-7.55-16.84-16.84-16.84s-16.84,7.55-16.84,16.84v40.43h-17.52v-40.43c0-18.95,15.41-34.36,34.36-34.36s34.36,15.41,34.36,34.36v40.43Z"/>
          <path class="cls-2" d="M411.65,352.29c-18.95,0-34.36-15.41-34.36-34.36v-40.43h17.52v40.43c0,9.28,7.55,16.84,16.84,16.84s16.84-7.55,16.84-16.84v-40.43h17.52v40.43c0,18.95-15.41,34.36-34.36,34.36Z"/>
          <path class="cls-2" d="M425.03,395.4h-46.34v-17.52h46.34c1.58,0,2.86-1.28,2.86-2.86s-1.28-2.86-2.86-2.86h-17.42v-17.52h17.42c11.24,0,20.38,9.14,20.38,20.38s-9.14,20.38-20.38,20.38Z"/>
          <path class="cls-2" d="M219.64,315.49c0-2.53-.26-5.01-.73-7.41-.03-.11-.05-.22-.08-.34-3.57-17.11-18.78-29.99-36.93-29.99-20.81,0-37.74,16.93-37.74,37.74s16.93,37.74,37.74,37.74c15.93,0,29.6-9.92,35.11-23.93h-18.57c-3.95,4.73-9.91,7.75-16.54,7.75-8.9,0-16.57-5.42-19.85-13.14h56.64c.63-2.71.96-5.53.96-8.42ZM161.77,307.74c3.11-8.07,10.97-13.82,20.12-13.82s17.01,5.74,20.12,13.82h-40.25Z"/>
        </g>
        <g>
          <path class="cls-4" d="M100.44,394.35c-.99-.38-1.8-.93-2.44-1.65-.64-.72-1.06-1.57-1.26-2.55l2.32-.55c.14.69.43,1.29.87,1.8s1,.89,1.68,1.16c.68.26,1.43.4,2.26.4.71,0,1.36-.1,1.95-.31.59-.2,1.07-.53,1.44-.99s.55-1.04.55-1.74-.22-1.29-.66-1.73c-.44-.44-.97-.78-1.6-1.02s-1.52-.51-2.66-.82c-1.2-.32-2.18-.65-2.94-.98-.76-.33-1.4-.81-1.9-1.44-.51-.63-.76-1.47-.76-2.5s.27-1.98.8-2.73c.54-.75,1.26-1.31,2.16-1.69.9-.37,1.9-.56,3-.56s2.1.16,3.01.47,1.7.8,2.33,1.46,1.06,1.47,1.27,2.44l-2.21.56c-.23-.98-.73-1.72-1.51-2.21-.78-.49-1.71-.74-2.8-.74-.66,0-1.27.1-1.83.31s-1.03.53-1.38.98c-.35.45-.53,1.02-.53,1.71,0,.61.19,1.11.57,1.5.38.39.86.69,1.44.91s1.37.46,2.36.72c1.32.35,2.39.69,3.21,1.02.82.33,1.52.84,2.1,1.52.58.68.87,1.58.87,2.7s-.29,2.12-.86,2.89c-.58.77-1.34,1.33-2.3,1.7-.96.37-2.02.55-3.19.55-1.24,0-2.36-.19-3.35-.57Z"/>
          <path class="cls-4" d="M122.08,382.68c.89.54,1.6,1.3,2.12,2.29.52.99.79,2.13.79,3.44s-.26,2.45-.79,3.44-1.23,1.76-2.12,2.29c-.89.54-1.87.81-2.94.81-.97,0-1.85-.24-2.64-.72-.79-.48-1.39-1.12-1.8-1.93v8.7h-2.2v-18.88h2.13l.05,2.43c.4-.82,1-1.47,1.79-1.95.79-.48,1.68-.72,2.66-.72,1.07,0,2.05.27,2.94.8ZM120.74,392.46c.62-.38,1.12-.92,1.48-1.62.37-.7.55-1.51.55-2.44s-.18-1.73-.55-2.43c-.37-.7-.86-1.24-1.48-1.62-.62-.38-1.31-.57-2.06-.57s-1.47.2-2.1.61c-.63.4-1.14.96-1.5,1.66-.37.7-.55,1.48-.55,2.34s.18,1.65.55,2.36.87,1.26,1.5,1.66c.63.4,1.33.61,2.1.61s1.44-.19,2.06-.57Z"/>
          <path class="cls-4" d="M138.1,388.75h-9.81c.03.94.22,1.73.59,2.38.37.65.85,1.14,1.46,1.46.61.32,1.28.49,2.01.49s1.46-.2,2.08-.6,1.1-.95,1.44-1.66l1.99.42c-.46,1.14-1.18,2.04-2.15,2.7s-2.09.98-3.34.98-2.3-.26-3.25-.78c-.95-.52-1.68-1.27-2.21-2.25-.53-.98-.79-2.15-.79-3.49s.27-2.5.8-3.48c.53-.98,1.27-1.74,2.2-2.26.94-.52,2-.78,3.18-.78s2.15.23,3.03.7c.88.47,1.56,1.17,2.06,2.11s.74,2.09.74,3.46l-.04.6ZM129.72,384.45c-.7.58-1.15,1.43-1.35,2.55h7.54c-.1-1.12-.47-1.97-1.12-2.55-.64-.58-1.47-.88-2.47-.88s-1.9.29-2.6.88Z"/>
          <path class="cls-4" d="M148.41,382.38c.66.34,1.16.83,1.53,1.48.36.65.54,1.44.54,2.36v8.46h-2.22v-7.96c0-1.01-.26-1.76-.77-2.25s-1.17-.73-1.97-.73c-.59,0-1.12.12-1.58.37-.47.25-.84.63-1.12,1.14-.28.52-.42,1.15-.42,1.91v7.51h-2.2v-12.56h2.2v1.61c.4-.6.92-1.05,1.56-1.37.64-.32,1.36-.48,2.17-.48.86,0,1.62.17,2.27.5Z"/>
          <path class="cls-4" d="M164.83,375.05v19.62h-2.13l-.04-2.39c-.39.86-.98,1.52-1.77,1.97-.79.46-1.69.68-2.7.68-1.07,0-2.06-.27-2.95-.81s-1.6-1.31-2.12-2.3c-.52-.99-.78-2.14-.78-3.43s.26-2.42.79-3.42c.52-.99,1.23-1.76,2.13-2.3s1.87-.81,2.94-.81,1.91.22,2.69.66c.78.44,1.36,1.09,1.76,1.93v-9.42h2.2ZM160.76,392.46c.63-.38,1.12-.92,1.48-1.62.36-.7.54-1.51.54-2.43s-.18-1.73-.54-2.43c-.36-.7-.85-1.24-1.48-1.62-.62-.38-1.32-.57-2.08-.57s-1.45.19-2.08.58c-.63.38-1.13.93-1.49,1.63-.37.7-.55,1.51-.55,2.42s.18,1.72.55,2.42c.37.7.86,1.25,1.49,1.63.63.38,1.32.58,2.08.58s1.46-.19,2.09-.57Z"/>
          <path class="cls-4" d="M192.97,382.12l-4.34,12.57h-1.99l-3.4-9.68-3.42,9.68h-2.01l-4.25-12.57h2.3l3.1,9.61,3.41-9.61h1.7l3.41,9.65,3.17-9.65h2.32Z"/>
          <path class="cls-4" d="M204.9,388.75h-9.81c.03.94.22,1.73.59,2.38.37.65.85,1.14,1.46,1.46.61.32,1.28.49,2.01.49s1.46-.2,2.08-.6,1.1-.95,1.44-1.66l1.99.42c-.46,1.14-1.18,2.04-2.15,2.7s-2.09.98-3.34.98-2.3-.26-3.25-.78c-.95-.52-1.68-1.27-2.21-2.25-.53-.98-.79-2.15-.79-3.49s.27-2.5.8-3.48c.53-.98,1.27-1.74,2.2-2.26.94-.52,2-.78,3.18-.78s2.15.23,3.03.7c.88.47,1.56,1.17,2.06,2.11s.74,2.09.74,3.46l-.04.6ZM196.52,384.45c-.7.58-1.15,1.43-1.35,2.55h7.54c-.1-1.12-.47-1.97-1.12-2.55-.64-.58-1.47-.88-2.47-.88s-1.9.29-2.6.88Z"/>
          <path class="cls-4" d="M207.01,375.05h2.22v19.62h-2.22v-19.62Z"/>
          <path class="cls-4" d="M212.28,375.05h2.22v19.62h-2.22v-19.62Z"/>
          <path class="cls-4" d="M240.43,382.12l-4.34,12.57h-1.99l-3.4-9.68-3.42,9.68h-2.01l-4.25-12.57h2.3l3.1,9.61,3.41-9.61h1.7l3.41,9.65,3.17-9.65h2.32Z"/>
          <path class="cls-4" d="M241.91,378.73c-.29-.29-.44-.65-.44-1.05s.15-.76.44-1.05c.29-.29.64-.43,1.05-.43.26,0,.51.07.73.2s.41.31.54.54c.14.23.2.48.2.74s-.07.51-.2.74c-.14.23-.32.41-.54.55s-.47.2-.73.2c-.41,0-.76-.15-1.05-.44ZM241.84,382.12h2.21v12.56h-2.21v-12.56Z"/>
          <path class="cls-4" d="M248.81,393.78c-.6-.6-.89-1.44-.89-2.51v-7.38h-2.58v-1.76c.87,0,1.5-.09,1.9-.26.4-.17.68-.51.83-1.02.15-.5.23-1.3.23-2.4h1.83v3.68h2.89v1.76h-2.89v7.15c0,.6.16,1.06.48,1.39.32.33.74.49,1.26.49h1.15v1.76h-1.75c-1.04,0-1.86-.3-2.45-.9Z"/>
          <path class="cls-4" d="M263.03,382.39c.64.34,1.15.85,1.51,1.52.36.67.54,1.5.54,2.47v8.3h-2.22v-7.88c0-1.05-.26-1.82-.77-2.31-.51-.49-1.17-.74-1.98-.74-.58,0-1.1.12-1.56.36-.46.24-.84.62-1.12,1.14-.28.52-.42,1.16-.42,1.92v7.51h-2.2v-19.62h2.2v8.73c.4-.6.93-1.07,1.58-1.41.65-.33,1.39-.5,2.22-.5s1.59.17,2.23.51Z"/>
          <path class="cls-4" d="M273.6,394.01c-.9-.6-1.45-1.46-1.64-2.58l1.92-.55c.14.75.49,1.33,1.04,1.74.55.41,1.24.62,2.06.62.69,0,1.28-.15,1.77-.45.49-.3.73-.77.73-1.42,0-.43-.12-.79-.36-1.06-.24-.27-.55-.49-.93-.64-.38-.15-.93-.33-1.65-.54l-.77-.23c-.72-.21-1.31-.44-1.8-.69-.48-.25-.88-.59-1.19-1.04-.32-.45-.47-1.02-.47-1.73,0-.79.2-1.45.59-1.99.4-.53.93-.93,1.59-1.18.66-.26,1.41-.38,2.25-.38,1.22,0,2.24.27,3.07.82s1.33,1.36,1.52,2.45l-1.8.46c-.14-.71-.46-1.24-.96-1.59-.51-.35-1.11-.53-1.8-.53s-1.22.15-1.69.44c-.47.29-.7.74-.7,1.35,0,.43.14.78.41,1.04.27.26.6.46.99.59s.96.3,1.71.49c.85.22,1.56.46,2.13.71.57.25,1.04.63,1.43,1.12.39.5.58,1.16.58,1.97s-.21,1.54-.63,2.1c-.42.55-.98.96-1.67,1.21s-1.48.38-2.34.38c-1.35,0-2.48-.3-3.38-.91Z"/>
          <path class="cls-4" d="M293.31,382.68c.89.54,1.6,1.3,2.12,2.29.52.99.79,2.13.79,3.44s-.26,2.45-.79,3.44-1.23,1.76-2.12,2.29c-.89.54-1.87.81-2.94.81-.97,0-1.85-.24-2.64-.72-.79-.48-1.39-1.12-1.8-1.93v8.7h-2.2v-18.88h2.13l.05,2.43c.4-.82,1-1.47,1.79-1.95.79-.48,1.68-.72,2.66-.72,1.07,0,2.05.27,2.94.8ZM291.97,392.46c.62-.38,1.12-.92,1.48-1.62.37-.7.55-1.51.55-2.44s-.18-1.73-.55-2.43c-.37-.7-.86-1.24-1.48-1.62-.62-.38-1.31-.57-2.06-.57s-1.47.2-2.1.61c-.63.4-1.14.96-1.5,1.66-.37.7-.55,1.48-.55,2.34s.18,1.65.55,2.36.87,1.26,1.5,1.66c.63.4,1.33.61,2.1.61s1.44-.19,2.06-.57Z"/>
          <path class="cls-4" d="M309.33,388.75h-9.81c.03.94.22,1.73.59,2.38.37.65.85,1.14,1.46,1.46.61.32,1.28.49,2.01.49s1.46-.2,2.08-.6,1.1-.95,1.44-1.66l1.99.42c-.46,1.14-1.18,2.04-2.15,2.7s-2.09.98-3.34.98-2.3-.26-3.25-.78c-.95-.52-1.68-1.27-2.21-2.25-.53-.98-.79-2.15-.79-3.49s.27-2.5.8-3.48c.53-.98,1.27-1.74,2.2-2.26.94-.52,2-.78,3.18-.78s2.15.23,3.03.7c.88.47,1.56,1.17,2.06,2.11s.74,2.09.74,3.46l-.04.6ZM300.96,384.45c-.7.58-1.15,1.43-1.35,2.55h7.54c-.1-1.12-.47-1.97-1.12-2.55-.64-.58-1.47-.88-2.47-.88s-1.9.29-2.6.88Z"/>
          <path class="cls-4" d="M319.65,382.38c.66.34,1.16.83,1.53,1.48.36.65.54,1.44.54,2.36v8.46h-2.22v-7.96c0-1.01-.26-1.76-.77-2.25s-1.17-.73-1.97-.73c-.59,0-1.12.12-1.58.37-.47.25-.84.63-1.12,1.14-.28.52-.42,1.15-.42,1.91v7.51h-2.2v-12.56h2.2v1.61c.4-.6.92-1.05,1.56-1.37.64-.32,1.36-.48,2.17-.48.86,0,1.62.17,2.27.5Z"/>
          <path class="cls-4" d="M336.06,375.05v19.62h-2.13l-.04-2.39c-.39.86-.98,1.52-1.77,1.97-.79.46-1.69.68-2.7.68-1.07,0-2.06-.27-2.95-.81s-1.6-1.31-2.12-2.3c-.52-.99-.78-2.14-.78-3.43s.26-2.42.79-3.42c.52-.99,1.23-1.76,2.13-2.3s1.87-.81,2.94-.81,1.91.22,2.69.66c.78.44,1.36,1.09,1.76,1.93v-9.42h2.2ZM331.99,392.46c.63-.38,1.12-.92,1.48-1.62.36-.7.54-1.51.54-2.43s-.18-1.73-.54-2.43c-.36-.7-.85-1.24-1.48-1.62-.62-.38-1.32-.57-2.08-.57s-1.45.19-2.08.58c-.63.38-1.13.93-1.49,1.63-.37.7-.55,1.51-.55,2.42s.18,1.72.55,2.42c.37.7.86,1.25,1.49,1.63.63.38,1.32.58,2.08.58s1.46-.19,2.09-.57Z"/>
          <path class="cls-4" d="M349.27,382.12v13.15c0,1.83-.46,3.19-1.37,4.06-.91.88-2.19,1.32-3.85,1.32-1.48,0-2.66-.33-3.54-.98-.88-.65-1.42-1.58-1.64-2.78l1.93-.74c.17,1.01.53,1.72,1.07,2.12.54.4,1.27.59,2.17.59s1.66-.26,2.2-.79c.54-.52.8-1.33.8-2.43v-2.63c-.4.59-.92,1.04-1.56,1.36-.64.32-1.36.48-2.16.48-.87,0-1.63-.17-2.28-.5-.65-.34-1.16-.83-1.52-1.48-.36-.65-.54-1.44-.54-2.36v-8.38h2.22v7.9c0,1.01.26,1.75.77,2.24.52.49,1.17.73,1.97.73.91,0,1.65-.29,2.23-.87.57-.58.86-1.44.86-2.57v-7.44h2.21Z"/>
        </g>
      </g>
    </g>
  </g>
</svg>